<?xml version="1.0" standalone="no"?>
<!DOCTYPE svg PUBLIC "-//W3C//DTD SVG 20010904//EN"
 "http://www.w3.org/TR/2001/REC-SVG-20010904/DTD/svg10.dtd">
<svg version="1.0" xmlns="http://www.w3.org/2000/svg"
 width="501.000000pt" height="501.000000pt" viewBox="0 0 501.000000 501.000000"
 preserveAspectRatio="xMidYMid meet">
<metadata>
Created by potrace 1.14, written by Peter Selinger 2001-2017
</metadata>
<g transform="translate(0.000000,501.000000) scale(0.100000,-0.100000)"
fill="#000000" stroke="none">
<path d="M2490 4582 c-8 -3 -19 -11 -25 -17 -15 -18 -91 -45 -126 -45 -17 0
-28 -4 -25 -9 6 -10 -22 -38 -44 -43 -8 -2 -22 -13 -32 -25 -10 -11 -38 -33
-63 -47 -49 -29 -87 -88 -91 -141 -3 -44 -12 -77 -24 -89 -6 -6 -10 -78 -10
-183 0 -162 -1 -173 -20 -183 -16 -8 -20 -21 -20 -60 0 -45 25 -110 43 -110 4
0 7 -4 7 -10 0 -14 -27 -12 -34 3 -3 6 -5 3 -3 -8 1 -14 11 -21 30 -23 15 -2
27 -9 27 -16 0 -21 -28 -39 -47 -32 -12 5 -15 4 -8 -3 6 -5 21 -11 35 -13 21
-3 26 -11 35 -59 7 -31 19 -74 27 -95 10 -23 17 -80 19 -140 4 -119 -3 -134
-65 -134 -26 -1 -56 -10 -81 -25 -23 -14 -55 -25 -76 -25 -19 0 -44 -7 -55
-15 -13 -10 -44 -14 -95 -15 -47 0 -96 -7 -130 -19 -30 -10 -71 -21 -91 -25
-26 -5 -39 -13 -44 -29 -4 -12 -22 -43 -39 -69 -18 -26 -41 -69 -51 -95 -9
-27 -34 -88 -54 -138 -21 -49 -43 -121 -50 -160 -7 -38 -28 -113 -48 -165 -19
-52 -43 -122 -52 -155 -10 -33 -27 -80 -40 -104 -19 -38 -21 -49 -11 -80 13
-41 37 -73 68 -90 34 -18 40 -14 47 34 13 82 66 101 208 71 97 -21 176 -61
185 -94 10 -43 -16 -76 -65 -83 -23 -3 -48 -11 -54 -17 -16 -16 1 -16 91 0
l69 12 13 43 12 44 26 -24 c56 -50 48 -49 219 -32 222 21 404 61 706 154 54
17 106 31 115 31 31 0 146 -42 167 -62 12 -11 24 -29 27 -41 3 -12 10 -39 15
-60 8 -30 7 -37 -4 -37 -16 0 -18 -14 -5 -38 6 -11 5 -23 -3 -34 -11 -15 -15
-15 -55 3 -28 12 -68 19 -119 20 -66 2 -92 -3 -182 -35 -58 -20 -116 -40 -130
-43 -14 -3 -30 -12 -36 -20 -8 -8 -25 -12 -46 -10 -23 3 -42 -2 -57 -15 -13
-10 -19 -18 -15 -18 5 0 2 -5 -6 -10 -12 -8 -12 -10 5 -10 51 0 95 13 95 28 0
12 3 13 11 5 13 -13 4 -33 -17 -33 -8 0 -14 -4 -14 -10 0 -5 -8 -10 -19 -10
-10 0 -24 -7 -31 -15 -7 -8 -19 -15 -27 -15 -8 0 -11 -5 -7 -11 5 -8 1 -8 -14
0 -11 6 -27 8 -35 5 -21 -8 -32 28 -13 42 9 6 16 17 16 24 0 10 -3 10 -15 0
-9 -7 -18 -10 -22 -7 -3 4 -14 2 -25 -4 -10 -5 -58 -12 -106 -15 -48 -3 -108
-12 -133 -20 -32 -10 -65 -13 -107 -8 -39 4 -74 2 -99 -7 -21 -7 -54 -14 -73
-15 -79 -8 -143 -22 -276 -62 -18 -6 -37 -6 -45 -1 -8 5 -26 9 -40 9 -34 0
-88 60 -90 98 -3 51 -6 73 -13 80 -4 4 -6 -52 -4 -123 3 -117 6 -136 28 -180
16 -29 39 -57 59 -69 30 -17 38 -18 75 -7 22 7 83 18 134 25 104 14 100 17 81
-63 -30 -130 -60 -448 -65 -691 -4 -204 -9 -271 -25 -335 -11 -44 -22 -115
-26 -157 l-6 -78 887 0 c487 0 886 2 886 5 0 2 -9 27 -20 55 -16 41 -20 75
-21 178 0 70 -8 181 -18 246 -12 82 -15 138 -10 176 13 91 3 296 -21 425 -12
66 -24 140 -27 164 l-6 44 57 -7 c178 -20 160 -21 199 14 25 22 41 47 51 85 9
29 16 55 16 58 0 3 -21 3 -47 1 -111 -12 -245 1 -297 28 -13 7 -21 6 -27 -3
-6 -10 -9 -7 -9 9 0 28 -31 71 -63 86 -27 13 -80 9 -71 -6 5 -7 1 -7 -11 -1
-11 7 -29 6 -56 -3 -21 -8 -46 -11 -56 -7 -10 3 -15 3 -11 -2 4 -4 0 -15 -9
-24 -9 -9 -18 -14 -19 -11 -1 3 -10 -2 -20 -11 -11 -9 -26 -17 -34 -17 -8 0
-26 -4 -39 -8 -44 -13 -18 17 52 60 37 23 79 59 96 82 41 58 76 82 129 90 60
8 90 27 107 68 23 55 36 59 186 68 180 12 190 8 203 -79 9 -61 10 -62 35 -56
39 9 101 42 107 57 3 7 -13 66 -34 132 -36 109 -67 232 -137 544 -48 211 -74
345 -77 384 -2 34 -9 44 -53 79 -73 58 -160 96 -246 107 -91 11 -135 22 -176
43 -18 10 -48 17 -68 17 -20 0 -46 5 -58 12 -12 6 -38 14 -57 18 l-35 6 2 63
c3 62 34 158 75 226 15 26 23 31 46 28 22 -4 24 -2 12 7 -11 9 -12 13 -2 17 6
2 12 16 12 29 0 14 4 23 10 19 5 -3 6 -13 3 -22 -4 -11 -3 -14 5 -9 7 4 12 14
12 21 0 8 10 44 22 81 15 47 19 71 12 82 -7 11 -5 35 7 79 16 61 29 83 75 129
12 11 27 44 35 72 7 29 17 52 22 52 12 0 0 145 -15 183 -9 23 -8 30 8 42 18
14 17 14 -8 15 -21 0 -28 5 -28 19 0 11 6 21 13 24 8 3 3 14 -15 34 -16 16
-28 34 -28 41 0 7 -5 12 -11 12 -15 0 -120 101 -114 110 11 18 -38 43 -97 49
-35 4 -78 15 -97 25 -52 28 -134 54 -151 48z m10 -17 c-7 -9 -15 -13 -19 -10
-3 3 1 10 9 15 21 14 24 12 10 -5z m-4 -329 c6 -9 18 -14 26 -11 11 4 17 -3
22 -25 3 -18 3 -36 0 -42 -12 -19 20 -70 64 -104 61 -46 76 -43 18 4 -33 26
-46 44 -46 62 1 24 1 24 12 5 7 -11 11 -21 10 -23 -4 -5 26 -32 35 -32 5 0 23
-20 41 -45 32 -46 58 -60 47 -26 -10 32 13 34 30 2 15 -30 22 -76 7 -55 -4 6
-18 9 -32 8 -52 -7 -100 -5 -119 5 -19 11 -51 5 -62 -11 -7 -10 -69 1 -69 13
0 5 -7 9 -15 9 -8 0 -23 4 -33 10 -31 17 -106 27 -137 17 -56 -16 -74 -16 -68
0 5 13 3 13 -16 3 -14 -7 -20 -17 -17 -26 7 -18 -21 -31 -35 -17 -7 7 -2 25
15 55 14 25 22 48 19 52 -4 3 4 6 17 6 19 0 21 2 10 15 -27 33 37 114 122 154
49 24 65 27 100 21 23 -5 47 -15 54 -24z m-191 -296 c27 -7 27 -8 5 -8 -14 0
-36 4 -50 8 -20 6 -21 8 -5 8 11 0 34 -4 50 -8z m-105 -28 c0 -5 -7 -17 -15
-28 -15 -19 -20 -8 -9 20 6 17 24 22 24 8z m117 -8 c-3 -3 -12 -4 -19 -1 -8 3
-5 6 6 6 11 1 17 -2 13 -5z m273 -44 c0 -13 -11 -13 -30 0 -12 8 -11 10 8 10
12 0 22 -4 22 -10z m-85 -58 l7 -32 -29 12 c-15 7 -30 13 -32 15 -2 1 4 14 14
29 19 30 30 23 40 -24z m-267 14 c10 -9 23 -16 29 -16 16 0 24 -28 10 -34 -7
-3 11 -3 40 0 63 7 77 1 62 -28 -10 -19 -17 -20 -79 -15 -69 6 -138 28 -152
50 -4 7 -8 24 -8 39 0 25 3 26 40 24 22 -2 49 -11 58 -20z m538 -33 c8 -29 -3
-44 -11 -17 -4 10 -11 27 -16 36 -7 13 -5 16 6 12 8 -4 18 -17 21 -31z m-605
-41 c29 -14 75 -25 125 -30 l78 -7 -29 -19 c-24 -16 -33 -17 -60 -7 -17 6 -48
11 -69 11 -59 0 -139 84 -109 114 5 4 10 -3 13 -16 3 -15 21 -31 51 -46z m640
5 c-13 -13 -15 11 -4 40 7 16 8 15 11 -6 2 -13 -1 -28 -7 -34z m-291 -34 c14
-28 33 -60 43 -70 17 -19 23 -53 10 -53 -3 0 -14 7 -23 15 -10 9 -28 18 -41
21 -13 3 -35 8 -49 11 -14 3 -49 6 -77 5 -59 -2 -67 10 -25 36 16 9 43 34 62
55 45 51 68 47 100 -20z m65 17 c4 -6 23 -17 43 -26 29 -12 42 -12 64 -3 15 6
37 9 48 6 11 -3 20 -1 20 4 0 23 20 6 21 -18 2 -27 2 -27 6 -3 6 30 23 51 23
28 0 -9 -4 -28 -10 -42 -9 -24 -14 -26 -69 -26 -62 0 -150 24 -163 44 -11 16
-10 46 1 46 6 0 13 -5 16 -10z m47 -85 c52 -15 148 -22 165 -12 20 12 21 -31
1 -52 -18 -20 -21 -20 -50 -5 -16 9 -54 18 -82 21 -44 5 -55 10 -69 34 -9 16
-15 29 -14 29 1 0 23 -7 49 -15z m48 -75 c0 -5 -4 -10 -10 -10 -5 0 -10 5 -10
10 0 6 5 10 10 10 6 0 10 -4 10 -10z m-346 -32 c9 -34 8 -38 -12 -38 -31 0
-44 21 -25 42 21 24 29 23 37 -4z m253 -48 c14 -21 7 -50 -11 -50 -13 0 -46
27 -65 53 -12 15 -10 17 25 17 28 0 43 -6 51 -20z m-64 -79 c16 -16 -32 -13
-68 5 l-30 14 44 -4 c24 -2 48 -9 54 -15z m101 -480 c4 -5 0 -12 -6 -14 -10
-4 -10 -7 0 -14 10 -7 8 -13 -7 -27 -14 -13 -21 -14 -27 -5 -4 7 -3 10 2 6 5
-3 10 3 10 14 0 19 -1 19 -17 -2 -12 -17 -18 -19 -24 -9 -5 9 2 21 21 37 32
25 40 28 48 14z m-109 -1261 c-3 -5 -10 -10 -16 -10 -5 0 -9 5 -9 10 0 6 7 10
16 10 8 0 12 -4 9 -10z m-235 -128 c-14 -2 -28 -9 -31 -14 -4 -5 -15 -8 -25
-5 -17 4 -17 6 4 12 12 4 22 11 22 15 0 4 12 5 28 1 l27 -5 -25 -4z"/>
</g>
</svg>
